<?xml version="1.0" encoding="UTF-8"?>
<svg xmlns="http://www.w3.org/2000/svg" viewBox="0 0 1093.47 744.79">
  <defs>
    <style>.a{fill:#fad6bc;}.b{fill:#ee3661;}</style>
  </defs>
  <path class="a" d="M560.63,670c-1.29.2-2.6.31-3.92.39l-3.93.3c6.33-.7,12.63-2,19.06-3,1.61-.22,3.2-.58,4.79-.92l4.81-1,4.82-1c.81-.16,1.62-.3,2.42-.49l2.4-.6,9.63-2.35c.8-.19,1.62-.37,2.42-.58l2.38-.7,4.78-1.39,4.8-1.37c.8-.23,1.61-.43,2.4-.69l2.36-.8,9.46-3.18-10.95,2c-1.81.39-3.68.59-5.54.85l-5.56.79-5.55.83-5.62.58-5.59.64c-1.86.21-3.71.48-5.59.58q-5.62.42-11.16,1c-1.83.24-3.71.25-5.56.38l-5.53.38-5.49.46-5.48.25q-2.73.15-5.43.36c-1.8.13-3.58.34-5.38.36-3.59.15-7.15.37-10.66.68-.88.07-1.76.18-2.63.23L525,663c-1.75.1-3.49.22-5.22.37-6.91.76-13.69,1.11-20.33,2.19-1.66.29-3.31.44-4.94.67s-3.27.47-4.9.76-3.23.59-4.84.94l-2.41.54-2.38.45c-3.16.65-6.3,1.42-9.41,2.33-1.56.45-3.12,1-4.65,1.45s-3.05.93-4.57,1.45c-.65-3.52-4.51-7-9.74-10.53-5.19-3.74-11.88-7-18.28-10.44-12.94-6.4-25.19-12.11-26.31-10.82-2.81-.47-5.65-.91-8.47-1.49s-5.57-1.34-8.38-2l-4.22-1.09c-1.42-.36-2.77-.87-4.16-1.3l-8.33-2.81,11.33,4.09c3.84,1.15,7.68,2.22,11.48,3.27-3.8-1-7.64-2.12-11.48-3.27l-11.33-4.09a204.77,204.77,0,0,1-50.14-27,233.73,233.73,0,0,1-43-41,253.68,253.68,0,0,1-32.59-51.66,279.47,279.47,0,0,1-20.14-58.53c-.65-2.8-1.36-5.89-2.14-9.25-.62-3.39-1.3-7-2-10.93s-1.25-8-1.89-12.32c-.28-2.16-.64-4.36-.9-6.61s-.4-4.57-.61-6.91a301.23,301.23,0,0,1,.74-61.12A277.62,277.62,0,0,1,234.11,289,250.66,250.66,0,0,1,253.17,247l5.14-8.49c.87-1.41,1.65-2.87,2.57-4.25l2.75-4.16c-1.62,2.25-2.91,3.9-3.87,5.35l-2.47,3.77L254.81,243c-.93,1.47-2.19,3.17-3.54,5.6.26-.84.5-1.69.78-2.52l.9-2.46,1.76-4.89c.59-1.63,1.17-3.26,1.75-4.87s1.3-3.16,1.93-4.73l3.91-9.35q2.18-4.55,4.32-9c.73-1.48,1.4-3,2.18-4.44l2.36-4.3c1.6-2.84,3.1-5.74,4.77-8.5,3.46-5.42,6.7-11,10.54-16-2.19,1.07-3.77,1.45-5.94,2.38a46.85,46.85,0,0,0-9.11,6L276,181l2.27-2.39,2.39-2.28a48.89,48.89,0,0,1,5.13-10.8c2.54-3.8,5.62-7.84,8.8-11.86,3.36-3.84,6.84-7.64,10-11.18,3.29-3.36,6.23-6.46,8.36-9.09-.13,2.07,1.82,1.41,4.8-.28A125.77,125.77,0,0,0,328.43,126l-4,.72a455.37,455.37,0,0,1,45.94-29.42c8-4.49,16.22-8.39,24.2-11.94l11.85-4.85c3.94-1.35,7.78-2.64,11.49-3.86a17,17,0,0,1,5.61-1.06,18.93,18.93,0,0,1,4.14.3l7-2.57c2.34-.86,4.74-1.51,7.11-2.27l7.16-2.23c1.18-.4,2.39-.71,3.6-1l3.64-.93c-.77,2.11,5.45,1.86,10.13,1.71,4.74.08,7.91.17,1.12,2.25,2.64-.91,5.33-1.71,8-2.43,1.35-.35,2.71-.69,4.07-1l2-.47,2.06-.33c2.75-.43,5.51-.81,8.27-1.17s5.52-.73,8.29-.84c11.07-.88,22-1.26,32.85-2.93a338.4,338.4,0,0,1,57.66,8.17,342.14,342.14,0,0,1,56.69,18.59,354.17,354.17,0,0,1,101.77,66.38l-.33-2.43c2.77,2.33,5.32,4.8,8,7.16,1.34,1.18,2.67,2.35,4,3.53s2.71,2.31,4,3.55c5.12,4.88,10.49,9.64,15.36,15.11l3.75,4.09c.62.69,1.25,1.39,1.87,2.1s1.17,1.47,1.76,2.21q3.53,4.46,7,9.29c2.26,3.26,4.29,6.79,6.38,10.43,1,1.83,2.12,3.66,3,5.63s1.81,4,2.69,6l3.08,3.95c1,1.36,2.11,2.74,3.06,4.21,2,2.92,3.94,5.95,5.94,9s3.82,6.27,5.68,9.42l2.75,4.69c.9,1.56,1.87,3.07,2.66,4.62,1.66,3.08,3.31,6.05,4.93,8.84.81,1.39,1.62,2.74,2.42,4s1.5,2.57,2.2,3.76c2.89,4.78,5.7,8.52,8.38,10.58,1.07,3.71,2,7.16,3,10.38l1.45,4.68.71,2.24c.2.74.41,1.48.61,2.2.8,2.9,1.61,5.65,2.42,8.33.42,1.34.82,2.67,1.23,4s.82,2.62,1.14,3.94c1.36,5.27,2.85,10.55,4.19,16.43.57,2.95,1.15,6.05,1.71,9.38s1.24,6.87,1.52,10.72c1.89-4.08,3.3,3.39,4.56,10.06.31,1.67.62,3.28.92,4.64a15.65,15.65,0,0,0,.84,2.95c.57,1.24,1.2.79,2-2.84a91,91,0,0,0,2.25-12.66,50.11,50.11,0,0,0,.16-8.64c-.16-2.59-.34-5.07-.29-8.05,0-1.49.11-3.1.28-4.92s.43-3.85.68-6.14l-1.27.67a343.42,343.42,0,0,0-59.87-180.53A358.77,358.77,0,0,0,774.21,101C752,82,727.84,63.41,701.29,48l-10-5.79-10.23-5.33L676,34.18c-1.72-.86-3.48-1.63-5.23-2.45l-10.5-4.81c-3.51-1.56-7.12-2.89-10.68-4.33l-5.36-2.11c-.89-.34-1.78-.71-2.68-1l-2.73-.92c-7.27-2.4-14.47-5-21.85-6.76-4-1-7.91-2.12-11.93-3L592.86,6.27c-2-.38-4.05-.88-6.11-1.16l-6.16-.93c-4.11-.59-8.21-1.29-12.34-1.76L555.84,1.23c-2.07-.16-4.12-.44-6.2-.51l-6.2-.27C539.31.29,535.2.07,531.1,0L518.84.14a337.59,337.59,0,0,0-90,14,77.11,77.11,0,0,1-8.95,2.25,79.23,79.23,0,0,1-8.33,1.3c-2.73.3-5.44.49-8.18.7s-5.45.63-8.28,1.09C371.23,28.41,344.69,40.29,319.43,56s-49.19,35-68.5,56.15a23.69,23.69,0,0,1,2.07-1.89c-2.63,2.73-5.12,5.44-7.64,8L241.62,122l-1.86,1.84L238,125.77c-2.35,2.5-4.69,4.93-7,7.33l-3.49,3.59-3.33,3.7c-2.2,2.48-4.41,5-6.63,7.44l-1.66,1.88-1.57,2-3.14,4c-2.09,2.7-4.18,5.47-6.27,8.34s-3.91,6-5.85,9.2c1,.49-1.39,4.41-2.08,6.61-.91.2-2.79,2.84-5.43,7.29-1.32,2.22-2.83,4.91-4.48,8s-3.17,6.66-4.92,10.49q-1.31,2.88-2.69,6l-2.55,6.51-2.64,6.87c-.44,1.17-.91,2.34-1.33,3.55s-.8,2.44-1.2,3.67l-2.43,7.52c-.78,2.56-1.71,5.08-2.36,7.73-1.4,5.27-2.84,10.59-4.18,15.94a383,383,0,0,0-9,60.63c-.27,4.29-.62,8.26-.79,11.85s-.23,6.83-.36,9.59-.3,5.07-.48,6.84a22.26,22.26,0,0,1-.49,3.64c.17,3,.31,6.16.38,9.35l-.39,5.75c-.12,1.92-.11,3.84-.19,5.76q-.19,5.77-.39,11.58c-.12,1.93-.07,3.87-.07,5.8l0,5.82v8.75l.12,2.91c.37,7.76.45,15.58,1.28,23.3.34,3.87.62,7.75,1,11.6s1,7.67,1.56,11.48c4.28,30.53,13.25,59.63,26.07,83.61,1.87,2.34,3.8,4.75,5.75,7.17l6.09,7c2,2.28,4,4.51,5.95,6.58s4,3.89,6,5.56a18.84,18.84,0,0,0,5.85,8.78,35.92,35.92,0,0,1,8.08,9c.51,1.84,1,3.65,1.6,5.34s1.24,3.27,1.87,4.8c1.28,3.07,2.59,5.84,3.88,8.31a46,46,0,0,0,3.9,6.31,41.49,41.49,0,0,0,3.48,4.3c4.16,4.4,6,3.37,2.52-3.49q3.12,3.18,6.16,6.43t6.29,6.25q3.1,3.15,6.17,6.28l6.32,6,6.2,5.94,6.34,5.55,6.23,5.39c2.09,1.73,4.24,3.32,6.33,4.93,8.06,5.55,16.48,10.43,25,15.25,7.48,3.73,10.48,7.58,12.78,12,19.35,9.37,12.42,8.67,32.22,19.72.85,1.4,4.68,3.25,10,5.25,1.34.48,2.74,1.05,4.27,1.49l4.76,1.36c3.28.9,6.76,1.81,10.23,2.69s7.05,1.46,10.39,2.16l9.35,1.85c5.71.92,10,1.73,11.43,2.43l-3.66-.46c3.09,1,6,2,8.84,3s5.6,1.92,8.28,2.94,5.27,2.05,7.85,3.11,5.15,1.92,7.72,2.9,5.16,1.89,7.78,2.81c1.32.45,2.63.95,4,1.33l4.09,1.11c2.76.73,5.6,1.4,8.56,2,1.47.3,3,.59,4.51.85s3.11.37,4.72.53q6.68.76,13.46,1.46c4.52.36,9.07.52,13.64.75l6.88.28,6.9-.06,6.92-.09c2.3-.07,4.62,0,6.93-.21l13.88-1,3.48-.28,3.46-.42,6.92-.88,6.91-.9c2.31-.3,4.59-.78,6.87-1.18,4.57-.84,9.15-1.62,13.68-2.56A412.18,412.18,0,0,0,641.6,722c8.3-3.32,16.59-6.37,24.45-10.05l5.93-2.63c1-.44,2-.86,2.93-1.32l2.87-1.42,11.35-5.59c-1.22-3.75-12.71,7.48-15.67,3.19A577.58,577.58,0,0,0,725.67,677l6.33-3.88c2.11-1.3,4.25-2.57,6.27-4q6.15-4.18,12.27-8.48c4-3,7.87-6.09,11.76-9.21,1-.78,2-1.55,2.9-2.36l2.79-2.48,5.53-5c1.49-1.05,3.08-2.14,4.7-3.2l4.65-3.19a73.57,73.57,0,0,1,7.28-4.44c5-4.14,5.82-6,6.37-7.47s.68-2.74,3.94-6.13l3.52,1.31a34.79,34.79,0,0,1,2.67-4.11,35.83,35.83,0,0,1,2.73-3.38,51.72,51.72,0,0,1,5.82-5.28,65.88,65.88,0,0,0,5.93-5.07,34,34,0,0,0,5.27-7.09c-.78-1.4,1.91-5.35,4.57-9.16,3.25,1.86,7.54-12.23,10.06-9.84l-.17-.27c1.61-2.33,2.39-4.21,4.67-6.88.38-1.33,1.7-5.38,3.42-10.75.92-2.65,1.67-5.78,2.58-9s1.78-6.61,2.7-10c1.65-6.83,3-13.69,4.18-19.1,1-5.49,1.52-9.6,1.65-11l1.47-2.07c2.65-6.82.84-10.74-1.1-7l3.06-8.37-.09,1.06,3-8.35c.85-1.45,3-2.75,3.85.18a43.94,43.94,0,0,1,3.05-15.61c-1.52,3.24-3.14,6.66-4.86,10.14-.87,1.74-1.68,3.53-2.67,5.27l-3,5.23c-2,3.49-4,7-6.16,10.3s-4.46,6.48-6.65,9.46c.49-3,2.16-6.75,4-10.57a88.59,88.59,0,0,0,4.23-10.88,63.84,63.84,0,0,0,3.94-6.17c1.31-2.48,2.68-5.29,4.06-8.27s2.85-6.09,4.11-9.23l3.52-9.23c.2-1.36-.61-2.72-1.07-4.43a7.84,7.84,0,0,1-.28-2.89,10,10,0,0,1,1.12-3.74c3.36-2.43,1.12-6.87,4.07-11.58a34.35,34.35,0,0,1-.59,8.86c-.26,1.45-.57,2.89-.9,4.34l-.48,2.17-.57,2.17c.87-.07,1.71-1,2.36-2.37a30.69,30.69,0,0,0,1.7-5.3c1-4,1.78-8.58,2.67-10.87-.27-1.18.1-4.63.67-8.71a85.49,85.49,0,0,0,1.12-12.48c3,3.51,2.53-5.71,4.6-9.95.77-5-.31-8.2-1.6-6.25-3.42-1.76-3.6,19.43-6.79,12.28.93-.82,1.42-3.64,1.72-6.9a93.36,93.36,0,0,0,.37-9.52c-1.93-.15-1.56,3.43-3.32,0,.58-5.69-1.59-11.74.49-15,.5,1.07.11,3.41,0,5.08.1-1.85.87-.26,2,3.05.55,1.66,1.17,3.75,1.83,6.06.32,1.15.68,2.37,1,3.6s.56,2.5.84,3.76c1.13,5,2.2,10.09,3,13.26.4,1.59.68,2.7.85,3.1s.3.09.3-1.15c-1,1.19-2.9-9.95-4.92-20.42-2.38-10.52-4.63-20.42-4.74-18-1.06,4.48-3.43-3.19-4.21,1.43l2.22,5.17c-.88,6.35-4.33,8.78-5.6,6.53.14-2.62,1-2.05,2.16.16.58,1.11,1.24,2.64,1.93,4.38s1.26,3.71,1.89,5.7c2.43,7.94,4.52,16.32,3.9,11.6-.42,1.22-.76,2.45-1.24,3.65-.86-4-1.22-14.46,1.12-18.36-1.82-.14-2.37-5.4-2.95-9.75l.36-1.52c-.86-4.5-.26-10.72-2.85-7.83-.17,13-4.92,8.53-9.85,4.2s-10-8.49-10.88,3.38c2.23-5,3.3-4.13,3.82-.67a88.59,88.59,0,0,1,.39,14.8c-1.53.93-3.93,5.48-5.67,12.88-.49,6.51,1.05,4,2,5.35-1.41,3.52-3.07,10.29-5.16,9.06a8.05,8.05,0,0,1,.46,1.9,7.21,7.21,0,0,1-.12,1.69,12.07,12.07,0,0,1-1.17,3.07c-1,2-2.25,4.1-2.33,7.17.26,5.5,1.19-.14,1.77,3.85-2,7.84-4.81,18.81-7.23,24.79-2.69,1.86-8.25,7.92-9.87,1.81,1.83-5.65,2.79-4.22,3.63-2.86s1.54,2.64,2.92-3.49c-3,2-2.59-.79-1.76-4.39.67-3.65,1.67-8.2.17-9.69a20.68,20.68,0,0,0-3.62,7.61,85.9,85.9,0,0,0-2.52,10l1-1.11c-.25,1.45-.58,3.26-1,5.25-.21,1-.44,2-.69,3.1s-.64,2.1-1,3.16c-1.42,4.24-3.25,8.41-5.46,11-1.09-2-3.15.19-2.17-4l-1.44,3.72-1.61,3.65c.12,1.12.25,2.29,1.45.28a16.07,16.07,0,0,1-4.22,9.56c-.25,0-.54.7-1,1.85s-.93,2.77-1.49,4.71-1.15,4.22-1.78,6.66c-.31,1.22-.62,2.48-1,3.75l-1.13,3.79c-.76,2.55-1.51,5.09-2.21,7.45s-1.32,4.58-2,6.37c-1.3,3.62-2.19,5.9-2.26,5.47-2.91,5.12-5.76,5-7.36,10.73.5.68,6.67-12,11.15-24.35,1.1-3.08,2.19-6.1,3.18-8.85s1.6-5.31,2.2-7.32c1.16-4,1.67-6,1-4.24-1,.92-2.53,5.34-4.67,11.43-2.35,6-4.92,13.83-8.26,21.32a216.19,216.19,0,0,1-9.77,20.59c-3.15,5.52-5.82,9.2-7,9.46a51.3,51.3,0,0,0-3.25,5.42c-.8,1.56-1,2.72,0,2.86-5.24,5.25-1.37-3.8-5.92-.73.15.26,1,.21-.1,1.47l-4.84,2.5a27.8,27.8,0,0,1-2.18,4c-.88,1.28-1.86,2.57-2.91,3.86-2.09,2.58-4.43,5.17-6.77,7.79s-4.9,5-7.08,7.65c-1.09,1.3-2.11,2.62-3,4a38.14,38.14,0,0,0-2.6,4c1.19-3.71,1.43-9,5.3-15.58l1.59-.3c.16-.58,1.21-2.07,2-3.58s1.27-3.08.55-3.61a66.33,66.33,0,0,0-7.35,7,47.16,47.16,0,0,0-3.11,4c-1,1.42-1.94,3-3,4.56-1.33.61-2.83,1.37-4,1.75a2.79,2.79,0,0,1,.57.42c-2.53.87-2.46.56-2.31-.55a1.5,1.5,0,0,1,.09-.65c-3.44-.39-7.65,5-13,11l-4,4.65c-1.35,1.59-2.89,3-4.35,4.39a39.08,39.08,0,0,1-8.93,6.6c-2.65,2.78.24.91-3,4.46l-8.36,4.15c-2.67,1.25-5.28,2.34-7.85,3.52l-7.83,3.62c-2.74,1.17-5.61,2.44-8.69,3.86-2.65,4.14-2.56,5.13,3.21,4.53L667.6,656c-1.58.73-3.2,1.37-4.8,2.07,2.79-4.81-2.21-3.87-7-3s-9.37,1.57-6.2-3.43a21.64,21.64,0,0,0-6.18,1.56,38.62,38.62,0,0,0-7.3,3.89c.09,1.61.29,4.33-6.38,6.89-5,.88-6.84,1.27-8.5,1.6s-3.16.44-7.33.85c-2.45-1.25.11-2.94-.73-4.32-11,6.45-11.56-.75-22.47,2.81-6.82,2.41-20.72,5.69-20.49,9C560.49,675.4,560.13,672.9,560.63,670Z"></path>
  <path class="b" d="M359.27,358.08c-5.88.6-10.2-.73-13-4s-3.95-8.18-3.49-14.79l5.56-99.75q.89-17.31,17.75-19,8.81-.9,13,4.07t3.48,14.69l-1.76,32.93,54.33-5.53,2.19-36.19q.89-17.31,17.56-19,8.81-.9,12.9,4t3.59,14.78l-5.58,99.57q-.87,17.51-17.54,19.2-9,.92-13-4.07t-3.49-14.69l1.76-34.82L379.2,301,377,338.86Q376.13,356.36,359.27,358.08Z"></path>
  <path class="b" d="M539,340.16q-14.81,1.51-26.4-2.7a40.4,40.4,0,0,1-27.26-35.37q-1.62-15.91,4.19-28.63a49.84,49.84,0,0,1,17.11-20.58,55,55,0,0,1,26.31-9.39q15.92-1.62,26.17,4.24a35.23,35.23,0,0,1,15,16.36,51.1,51.1,0,0,1,4.48,22.64c-.05,3.16-.76,5.28-2.09,6.36a9.57,9.57,0,0,1-5.2,2l-54.89,5.59q1.2,8.21,7.46,11.92t16.36,2.69a56,56,0,0,0,9.55-1.92,35.7,35.7,0,0,0,9-3.75q6.11-3.27,10.08-1.41a10,10,0,0,1,5.38,6.36,14.88,14.88,0,0,1-.27,9.4,13.77,13.77,0,0,1-7.07,7.73,61.14,61.14,0,0,1-13.62,5.73A81.55,81.55,0,0,1,539,340.16Zm-4.22-74.9q-8.43.86-12.69,6.4a26.3,26.3,0,0,0-5.2,13l35.4-3.6q-.4-7.72-4.74-12.2T534.75,265.26Z"></path>
  <path class="b" d="M640.51,329.83q-14.24,1.44-23.74-2.69a27.62,27.62,0,0,1-14-12.78q-4.47-8.62-3.78-20.43l1.82-30.48-4.12.42q-13.12,1.33-14.18-9.15-.69-6.75,3.34-10.85T597.57,239l4.69-.48.72-13.32q.87-15.62,16.42-17.2,8.43-.86,12.85,3.43t3.8,13.24l-.45,10.46,13.49-1.38q6.2-.63,10,1.63a9,9,0,0,1,4.34,7.32,14,14,0,0,1-3,10.53q-3.62,4.53-10.54,5.24l-15.74,1.6L632.4,289.2q-.31,8,3.09,10.85t9,2.3a19.87,19.87,0,0,0,4.64-.94,16.8,16.8,0,0,1,4.07-.89,6.47,6.47,0,0,1,5.25,1.36q1.88,1.69,2.43,7.13.93,9.18-1.89,13.07a15.14,15.14,0,0,1-7.58,5.5A54.49,54.49,0,0,1,640.51,329.83Z"></path>
  <path class="b" d="M46.08,572.78a100.47,100.47,0,0,1-19.24,0,65.48,65.48,0,0,1-18.39-4.25A12.46,12.46,0,0,1,0,556.12a14.1,14.1,0,0,1,2.19-7,10.91,10.91,0,0,1,5.66-4.52c2.43-.9,5.32-.76,8.66.4a57.9,57.9,0,0,0,15.57,3.41,81.17,81.17,0,0,0,14.41,0q9.09-.92,13.66-4.29t4.1-8a7.73,7.73,0,0,0-3.58-5.84q-3.19-2.17-9.72-3l-18.79-2.59q-12.39-1.49-20.26-8.41t-9-18.25Q1.65,486,7.42,476.93A41.75,41.75,0,0,1,23.65,462.4a62.62,62.62,0,0,1,23.07-6.78,86.26,86.26,0,0,1,16.76.07,58.76,58.76,0,0,1,17.68,4.48,11.8,11.8,0,0,1,6,4.7,12.27,12.27,0,0,1,2,6.8,11.74,11.74,0,0,1-2,6.57,10.81,10.81,0,0,1-5.93,4.22q-4,1.29-9.78-.37a50.87,50.87,0,0,0-11.19-2.32A56.08,56.08,0,0,0,49,479.71q-8.77.89-13.49,4.35t-4.25,8.08q.74,7.19,12.17,8.75l18.77,2.44Q75.58,505,83.55,512a26.52,26.52,0,0,1,9.06,17.84A32.61,32.61,0,0,1,90.16,547a36,36,0,0,1-10,12.93,51.54,51.54,0,0,1-15.38,8.65A77.51,77.51,0,0,1,46.08,572.78Z"></path>
  <path class="b" d="M115.92,594.34q-6.69.67-10.24-3.31t-3.07-11.93l4.5-80.83q.8-14.25,14.67-15.66,5.73-.58,9.1,2.37t3.79,8.72a30.44,30.44,0,0,1,10.12-10.46,32.08,32.08,0,0,1,13.94-4.72q13.23-1.33,22.05,7t10.43,24.14a58.87,58.87,0,0,1-2.44,25.06,41.14,41.14,0,0,1-12.13,18.46,35.81,35.81,0,0,1-20.25,8.35,29.23,29.23,0,0,1-13.95-1.73,21.5,21.5,0,0,1-10.08-8.07l-1.59,27.06Q129.95,592.91,115.92,594.34Zm32.29-53.06q8-.81,11.86-8.46t2.77-18.64q-.72-7.17-4.39-10.66a11.25,11.25,0,0,0-9.39-2.91q-8.13.83-12,8.47t-2.78,18.64q.74,7.17,4.39,10.67T148.21,541.28Z"></path>
  <path class="b" d="M246.77,552.35q-12.59,1.27-22.46-2.31A34.36,34.36,0,0,1,201.12,520q-1.38-13.55,3.56-24.36a42.35,42.35,0,0,1,14.56-17.51,46.77,46.77,0,0,1,22.38-8q13.55-1.38,22.27,3.61a30,30,0,0,1,12.77,13.92,43.7,43.7,0,0,1,3.82,19.26c-.05,2.69-.65,4.49-1.79,5.42a8.15,8.15,0,0,1-4.42,1.65l-46.7,4.76q1,7,6.34,10.14t13.93,2.29a48.15,48.15,0,0,0,8.12-1.63,30.73,30.73,0,0,0,7.65-3.2q5.19-2.77,8.58-1.19a8.44,8.44,0,0,1,4.57,5.41,12.57,12.57,0,0,1-.23,8,11.68,11.68,0,0,1-6,6.57A52.06,52.06,0,0,1,258.93,550,70.17,70.17,0,0,1,246.77,552.35Zm-3.59-63.74q-7.17.74-10.8,5.45A22.52,22.52,0,0,0,228,505.14l30.13-3.07q-.34-6.57-4-10.38T243.18,488.61Z"></path>
  <path class="b" d="M335.24,543.34q-12.58,1.29-22.46-2.3a34.36,34.36,0,0,1-23.19-30.1q-1.38-13.54,3.56-24.36a42.32,42.32,0,0,1,14.56-17.5,46.78,46.78,0,0,1,22.38-8q13.55-1.38,22.27,3.61a30,30,0,0,1,12.77,13.92A43.75,43.75,0,0,1,369,497.87q-.07,4-1.79,5.42a8.23,8.23,0,0,1-4.42,1.66L316,509.7q1,7,6.35,10.15t13.93,2.28a47.18,47.18,0,0,0,8.12-1.63,30.73,30.73,0,0,0,7.65-3.19q5.19-2.79,8.58-1.2a8.46,8.46,0,0,1,4.57,5.41,12.57,12.57,0,0,1-.23,8,11.68,11.68,0,0,1-6,6.57A52.06,52.06,0,0,1,347.4,541,69.25,69.25,0,0,1,335.24,543.34Zm-3.59-63.74q-7.17.73-10.8,5.45a22.46,22.46,0,0,0-4.42,11.08l30.12-3.06q-.35-6.57-4-10.38C340.06,480.14,336.44,479.12,331.65,479.6Z"></path>
  <path class="b" d="M410.64,535.67q-15.3,1.55-22.94-6.2T381,505.34l4-69.5q.78-14.41,14.81-15.84,6.71-.69,10.25,3.38c2.37,2.72,3.39,6.66,3.06,11.85L409.31,502q-.26,5.5,1.95,8.1a6.52,6.52,0,0,0,6,2.2,9.21,9.21,0,0,0,2.21-.47,8.94,8.94,0,0,1,2.05-.45,4.1,4.1,0,0,1,3.51,1.26q1.43,1.46,1.85,5.61.69,6.69-1.53,10.22a12.74,12.74,0,0,1-5.29,5,17.94,17.94,0,0,1-4.21,1.39A46.27,46.27,0,0,1,410.64,535.67Z"></path>
  <path class="b" d="M448.87,531.45q-6.54.67-10.09-3.32t-3.06-11.93l4.74-86.33q.81-14.08,14.85-15.52,6.69-.68,10.25,3.39t3.07,12l-2.84,51.19.32,0,21.25-27a35.37,35.37,0,0,1,6.91-7.23,17.13,17.13,0,0,1,8.49-2.87q5.89-.6,8.92,2.23a9.55,9.55,0,0,1,3,7.34,16,16,0,0,1-3.41,9.21l-17.52,22.56,16.71,20.2a15.89,15.89,0,0,1,3.67,9.13,10.44,10.44,0,0,1-2.84,7.7,12.77,12.77,0,0,1-8.39,3.75q-6.39.66-10.21-1.38T484.76,517l-19.43-23.15-.32,0-1.14,22Q463,530,448.87,531.45Z"></path>
  <path class="b" d="M558.38,520.3q-11.32,1.16-15.77-10.95l-18.17-48.73q-3.09-8.22,0-13.76T535,440.55q5.26-.54,8.32,1.89t5.35,9l11.12,33.33,16.94-40.86q3.22-7.89,11.35-8.72,8.61-.88,11.62,8.15L611.88,481l16.3-39.19q2.58-6.37,5.77-9a15.92,15.92,0,0,1,8.77-3.23q8-.81,10.94,3.88t-.17,11.77l-25.82,58q-4.57,10.44-15.41,11.55-11.47,1.17-15.93-10.94l-9.49-26.74L573.9,508.26Q569.37,519.18,558.38,520.3Z"></path>
  <path class="b" d="M688.49,507.38a27,27,0,0,1-14.07-2.11,27.61,27.61,0,0,1-10.58-8.18A22.48,22.48,0,0,1,659,485.26q-1.28-12.43,8.83-19.18t32.59-9l10.83-1.1,0-1.45q.42-5.36-3.16-8.05t-10.91-1.95A51.66,51.66,0,0,0,679.11,450q-5.08,2.3-8.88.66a9.26,9.26,0,0,1-5.22-5.42,10.1,10.1,0,0,1,.4-7.93q1.83-4.14,7.84-6.84a81.66,81.66,0,0,1,13.37-4.75,88.84,88.84,0,0,1,12.5-2.24q14.49-1.47,23.17,3a25.76,25.76,0,0,1,12.35,13,40.76,40.76,0,0,1,3,19.1L736.12,488q-.79,14.25-13.87,15.58-5.75.58-9-2.3c-2.19-1.92-3.34-5.14-3.48-9.63A23.87,23.87,0,0,1,701.08,503,27.36,27.36,0,0,1,688.49,507.38Zm8-19.49a14.59,14.59,0,0,0,9.83-4.71,16.12,16.12,0,0,0,4-10.07l.13-3.55-8.61.87q-8.92.92-12.63,3.3a6.79,6.79,0,0,0-3.25,6.86,7.43,7.43,0,0,0,3.33,5.86A11,11,0,0,0,696.49,487.89Z"></path>
  <path class="b" d="M765.61,499.21q-6.86.71-10.39-3.13t-3-11.45L755,431.68q.71-13.6,14.58-15,6.52-.66,10,3c2.35,2.44,3.38,6,3.12,10.79a27.65,27.65,0,0,1,8.67-12.07,26.63,26.63,0,0,1,13.68-5.67q4.93-.5,7.47,1.42t3,6.86q.78,7.65-2.3,11.5t-10,5.21L797.48,439q-8.21,1.65-11.39,6t-3.75,12.95L781,484Q780.12,497.73,765.61,499.21Z"></path>
  <path class="b" d="M868.29,489.08q-12.1,1.23-20.2-2.29a23.51,23.51,0,0,1-11.9-10.87q-3.81-7.35-3.22-17.39l1.55-25.93L831,433q-11.17,1.14-12.07-7.79-.59-5.75,2.84-9.23t10-4.15l4-.41.62-11.34q.74-13.28,14-14.63,7.18-.72,10.93,2.92t3.24,11.26l-.38,8.9,11.48-1.17q5.25-.52,8.51,1.39a7.67,7.67,0,0,1,3.7,6.23,12,12,0,0,1-2.55,9q-3.07,3.86-9,4.45l-13.39,1.37-1.51,24.79q-.27,6.8,2.64,9.24c1.93,1.62,4.5,2.27,7.68,1.95a17,17,0,0,0,3.95-.8,14.18,14.18,0,0,1,3.46-.76,5.52,5.52,0,0,1,4.47,1.16c1.06,1,1.75,3,2.07,6.07q.8,7.81-1.61,11.11a12.86,12.86,0,0,1-6.45,4.69A46.35,46.35,0,0,1,868.29,489.08Z"></path>
  <path class="b" d="M909.87,484.53q-6.71.68-10.25-3.39t-3.06-11.85l3-51.68q.81-14.25,14.83-15.68,6.7-.68,10.25,3.31t3.06,11.92l-2.95,51.68Q923.89,483.11,909.87,484.53Zm5.39-94.13q-7.49.77-11.35-2.39t-3.56-9.62q.51-14.07,16.44-15.69,7.34-.74,11.36,2.39t3.71,9.61Q931.05,388.8,915.26,390.4Z"></path>
  <path class="b" d="M985.14,477.19q-12.6,1.28-22.46-2.31a35.07,35.07,0,0,1-16-11.34,35.44,35.44,0,0,1-7.23-18.75q-1.38-13.55,3.56-24.36a42.45,42.45,0,0,1,14.57-17.51,46.69,46.69,0,0,1,22.38-8q13.54-1.38,22.27,3.61A30,30,0,0,1,1015,412.46a43.55,43.55,0,0,1,3.81,19.26q-.08,4-1.78,5.41a8.11,8.11,0,0,1-4.42,1.66l-46.71,4.76q1,7,6.35,10.14T986.2,456a48.25,48.25,0,0,0,8.13-1.63,31.05,31.05,0,0,0,7.65-3.2q5.19-2.77,8.57-1.19a8.45,8.45,0,0,1,4.58,5.41,12.57,12.57,0,0,1-.23,8,11.7,11.7,0,0,1-6,6.57,51.79,51.79,0,0,1-11.58,4.88A71.13,71.13,0,0,1,985.14,477.19Zm-3.59-63.74q-7.17.74-10.8,5.45A22.43,22.43,0,0,0,966.32,430l30.13-3.07q-.35-6.57-4-10.38T981.55,413.45Z"></path>
  <path class="b" d="M1043.29,470.94q-6.86.71-10.39-3.13t-3-11.45l2.82-52.95q.7-13.61,14.58-15c4.35-.45,7.7.56,10,3s3.38,6.05,3.11,10.8a27.68,27.68,0,0,1,8.67-12.08,26.69,26.69,0,0,1,13.68-5.66c3.3-.34,5.79.14,7.48,1.41s2.69,3.57,3,6.86q.78,7.65-2.29,11.51t-10,5.21l-5.84,1.23q-8.21,1.65-11.38,6T1060,429.62l-1.37,26.07Q1057.79,469.48,1043.29,470.94Z"></path>
</svg>
